<?xml version="1.0" standalone="no"?>
<!DOCTYPE svg PUBLIC "-//W3C//DTD SVG 20010904//EN"
 "http://www.w3.org/TR/2001/REC-SVG-20010904/DTD/svg10.dtd">
<svg version="1.0" xmlns="http://www.w3.org/2000/svg"
 width="512.000000pt" height="512.000000pt" viewBox="0 0 512.000000 512.000000"
 preserveAspectRatio="xMidYMid meet">
<metadata>
Created by potrace 1.14, written by Peter Selinger 2001-2017
</metadata>
<g transform="translate(0.000000,512.000000) scale(0.100000,-0.100000)"
fill="#000000" stroke="none">
<path d="M3161 4696 c2 -2 32 -15 66 -29 34 -14 68 -30 75 -37 7 -6 38 -28 70
-48 31 -20 76 -52 100 -71 l43 -33 -40 37 c-80 76 -124 106 -207 145 -73 34
-122 51 -107 36z"/>
<path d="M3581 4414 c37 -38 70 -80 74 -94 4 -14 18 -41 31 -60 13 -19 30 -55
39 -80 9 -25 31 -61 49 -80 52 -55 80 -150 45 -150 -5 0 -9 -27 -9 -60 0 -33
-4 -60 -10 -60 -5 0 -10 -5 -10 -11 0 -5 4 -7 10 -4 6 3 7 -1 4 -9 -3 -9 -1
-16 5 -16 6 0 11 -15 11 -32 0 -23 3 -29 9 -19 16 26 37 -35 33 -96 -2 -16 -7
-20 -22 -16 -11 3 -20 1 -20 -4 0 -5 -17 -15 -37 -22 -20 -8 -55 -27 -76 -42
-22 -16 -46 -29 -54 -29 -7 0 -13 -4 -13 -10 0 -6 -17 -7 -42 -4 -72 10 -118
11 -118 3 0 -13 -40 -21 -53 -11 -21 18 -68 1 -88 -32 -10 -17 -15 -32 -10
-34 5 -2 5 -20 0 -42 -6 -24 -5 -49 1 -65 6 -15 10 -72 10 -128 0 -64 8 -137
21 -197 26 -122 26 -181 -1 -232 -11 -22 -15 -36 -8 -32 7 4 4 -2 -6 -14 -11
-12 -25 -22 -33 -22 -8 0 -27 -13 -43 -29 -16 -16 -31 -26 -34 -24 -8 8 -22
-31 -25 -70 -2 -26 2 -39 13 -43 9 -3 16 -15 16 -25 0 -13 7 -19 21 -19 11 0
33 -8 47 -19 15 -10 37 -21 49 -25 11 -4 27 -14 35 -23 10 -14 10 -15 0 -9
-10 6 -12 0 -7 -28 5 -25 4 -36 -4 -36 -7 0 -10 -4 -7 -9 3 -5 -2 -19 -12 -32
-18 -21 -25 -22 -178 -23 -158 -1 -220 6 -209 24 3 5 -11 12 -32 17 -21 4 -40
8 -43 8 -46 11 -120 14 -141 7 -23 -9 -118 4 -146 21 -4 2 -24 -4 -43 -14 -20
-11 -28 -19 -17 -19 9 0 17 -4 17 -10 0 -14 22 -12 56 5 23 11 38 12 67 4 20
-5 37 -14 37 -19 0 -16 71 -32 163 -35 79 -3 183 -21 237 -42 8 -3 28 -7 43
-8 36 -4 57 -31 55 -73 -3 -40 -6 -42 -61 -44 -39 0 -44 -3 -39 -20 2 -11 10
-22 17 -24 7 -3 11 -13 8 -24 -3 -10 1 -21 8 -26 8 -5 11 -3 7 8 -5 13 -2 13
27 0 20 -9 31 -21 28 -29 -3 -7 -9 -10 -14 -7 -5 3 -9 0 -9 -5 0 -6 -13 -11
-30 -11 -16 0 -30 -5 -30 -11 0 -8 11 -9 31 -5 46 9 139 -4 139 -20 0 -18 57
-57 65 -44 11 18 35 11 35 -10 0 -11 7 -20 15 -20 8 0 15 -7 15 -15 0 -12 6
-10 23 7 26 25 30 46 14 66 -7 9 -7 16 1 24 8 8 13 1 18 -30 4 -29 10 -39 20
-35 10 4 12 0 8 -11 -3 -9 -10 -16 -15 -16 -18 0 -49 -45 -49 -72 0 -18 -5
-28 -15 -28 -9 0 -15 10 -15 26 0 14 4 22 10 19 6 -3 7 1 3 10 -5 13 -7 14
-14 3 -5 -7 -9 -9 -9 -5 0 13 -40 -13 -40 -26 0 -7 -14 -19 -31 -27 -21 -10
-35 -28 -44 -54 -15 -43 -100 -136 -125 -136 -9 0 -21 -5 -28 -12 -7 -7 -12
-9 -12 -5 0 3 -20 0 -44 -7 -35 -11 -47 -11 -58 -1 -10 10 -32 9 -103 -2 -86
-13 -137 -13 -180 2 -15 5 -16 4 -6 -3 10 -8 6 -11 -18 -17 -34 -7 -43 -25
-12 -25 10 0 19 -6 18 -12 0 -7 1 -22 2 -33 l2 -20 9 20 c7 18 8 19 15 3 18
-44 -33 -69 -88 -44 -49 22 -114 25 -101 4 5 -8 2 -9 -12 -4 -51 19 -117 28
-124 16 -4 -7 -16 -9 -29 -5 -25 7 -28 22 -6 28 11 3 10 4 -2 3 -13 -1 -17
-10 -16 -29 2 -31 52 -84 143 -152 93 -69 99 -76 90 -125 -6 -32 -4 -45 11
-64 12 -15 19 -40 19 -68 0 -24 7 -53 15 -64 8 -12 11 -24 8 -28 -3 -3 7 -7
23 -7 16 -1 47 -2 69 -3 22 -2 80 -3 128 -4 79 -2 90 -4 113 -27 14 -14 29
-23 34 -20 4 2 6 -31 5 -75 -2 -67 -7 -86 -27 -113 -37 -48 -39 -62 -22 -133
18 -80 37 -111 78 -128 40 -17 98 -65 91 -76 -12 -20 34 -25 115 -14 47 6 76
12 65 13 -11 1 -27 6 -35 11 -13 9 -13 12 2 23 11 9 15 21 11 36 -3 13 -9 18
-12 13 -10 -16 -51 6 -61 34 -6 16 -16 24 -24 21 -8 -3 -22 3 -32 14 -9 10
-23 19 -31 19 -12 0 -15 7 -12 26 0 4 -5 10 -11 14 -7 4 -14 25 -17 46 -3 22
-2 36 3 31 4 -4 18 0 31 8 21 14 25 14 53 -13 16 -16 30 -34 30 -41 0 -6 11
-16 25 -23 13 -6 29 -23 35 -37 20 -49 39 -75 59 -83 21 -8 29 -28 11 -28 -5
0 -10 -9 -10 -20 0 -16 7 -20 30 -20 28 0 30 2 24 27 -4 16 -11 32 -15 38 -13
14 -11 35 4 35 8 0 17 -23 24 -57 12 -65 4 -86 -31 -81 -31 4 -22 -31 15 -60
16 -13 27 -27 24 -32 -3 -5 -1 -11 4 -15 7 -3 9 13 7 44 -3 57 8 59 19 4 3
-21 15 -47 26 -59 10 -11 23 -44 29 -73 5 -29 13 -57 16 -63 4 -7 2 -8 -4 -4
-7 4 -12 13 -12 20 0 7 -7 13 -15 13 -18 0 -20 -13 -4 -23 6 -4 9 -19 5 -36
-5 -27 -4 -29 10 -17 15 12 16 11 10 -9 -7 -20 -4 -22 27 -22 l34 0 -18 72
c-10 40 -19 87 -19 104 0 17 -11 53 -25 79 -29 54 -64 193 -70 275 -2 30 -6
62 -8 70 -17 49 -16 69 4 94 11 14 17 30 14 36 -10 17 -23 11 -28 -13 -3 -20
-4 -20 -12 -4 -5 12 -3 24 8 34 12 12 13 21 5 39 -8 17 -7 26 3 36 19 19 47
29 51 17 2 -5 22 9 46 30 38 35 47 39 68 30 34 -12 57 -12 48 2 -4 7 -2 10 6
7 7 -2 14 -19 16 -37 3 -23 0 -31 -8 -28 -7 2 -26 -13 -41 -34 -24 -32 -28
-49 -31 -113 -4 -110 1 -136 29 -136 17 0 22 5 18 18 -4 16 1 18 43 15 27 -2
50 -6 52 -8 3 -2 13 0 22 5 12 7 34 5 67 -5 26 -8 49 -15 51 -15 5 0 2 37 -5
43 -3 4 -14 0 -24 -9 -17 -15 -18 -14 -12 22 8 52 16 59 48 38 19 -12 23 -19
13 -25 -20 -13 17 -47 46 -42 21 4 23 8 16 33 -8 28 -5 40 11 40 4 0 10 -11
13 -25 7 -27 42 -55 78 -60 54 -9 83 -19 90 -29 5 -7 8 -5 8 6 0 10 -9 26 -21
37 -23 21 -52 71 -41 71 13 -1 59 -45 71 -68 7 -12 16 -20 22 -16 7 4 6 10 -1
19 -7 8 -7 16 -2 19 6 3 17 -5 26 -19 19 -29 20 -39 4 -29 -7 4 -8 3 -4 -5 4
-6 12 -9 17 -6 5 4 9 -3 9 -15 0 -12 5 -18 10 -15 6 3 10 1 10 -5 0 -6 7 -18
15 -26 26 -27 16 -5 -31 69 -70 108 -127 179 -241 299 -91 97 -103 114 -103
145 0 63 -23 167 -43 198 -21 31 -107 115 -118 115 -4 0 -53 35 -110 78 -57
42 -125 88 -150 101 l-46 25 109 125 c199 228 270 334 349 521 98 235 118 357
98 600 -17 208 -17 363 0 490 9 73 12 158 8 277 -5 164 -7 175 -42 279 -50
145 -77 205 -134 294 -26 41 -60 95 -74 120 -28 49 -128 159 -192 211 -25 21
-16 7 26 -37z m197 -1022 c2 -7 8 -10 12 -7 5 3 12 0 16 -6 4 -8 3 -9 -4 -5
-8 5 -12 -2 -12 -18 0 -14 6 -26 13 -26 7 0 5 -5 -5 -11 -12 -7 -33 -4 -73 10
-31 11 -76 23 -101 27 -46 7 -53 15 -31 39 16 18 178 16 185 -3z m-161 -192
c20 0 32 -4 28 -10 -4 -6 7 -10 24 -10 20 0 42 -10 63 -29 28 -25 31 -32 19
-43 -10 -9 -12 -9 -7 -1 10 19 -44 62 -76 63 -26 0 -41 -18 -18 -21 15 -2 22
-5 50 -17 l25 -11 -27 0 c-32 -1 -40 -31 -8 -31 16 0 18 -4 10 -24 -8 -22 -5
-25 33 -35 23 -6 56 -12 72 -13 19 -2 30 -9 31 -18 0 -8 8 -29 17 -47 9 -18
17 -43 17 -56 0 -12 4 -27 9 -32 9 -10 15 -61 12 -99 -1 -15 -4 -17 -13 -8 -8
8 -8 15 2 27 8 10 9 15 2 15 -20 0 -29 -34 -20 -67 6 -25 12 -31 26 -26 15 6
15 5 3 -11 -8 -9 -15 -29 -16 -44 -7 -79 -41 -143 -89 -166 -49 -23 -82 -10
-77 32 1 6 -2 12 -6 12 -9 0 -20 20 -82 153 -22 48 -43 87 -47 87 -3 0 -2 -4
1 -10 3 -5 1 -10 -5 -10 -7 0 -5 -9 4 -22 9 -12 16 -26 16 -31 0 -17 -31 23
-41 53 -6 16 -15 27 -20 24 -5 -3 -9 -2 -8 3 1 4 -3 21 -9 36 -7 16 -12 46
-12 67 0 21 -4 40 -9 42 -4 2 -11 38 -15 80 -6 71 -5 77 14 83 11 3 20 15 20
25 0 10 5 22 10 25 15 9 12 25 -4 25 -11 0 -12 5 -3 26 10 21 17 24 41 20 16
-4 44 -6 63 -6z m273 -470 c0 -5 -5 -10 -11 -10 -5 0 -7 5 -4 10 3 6 8 10 11
10 2 0 4 -4 4 -10z m-120 -524 c0 -6 7 -3 14 7 13 16 14 15 18 -12 2 -17 2
-28 -2 -26 -3 2 -12 -13 -19 -33 -8 -20 -28 -57 -45 -82 -17 -25 -32 -52 -34
-60 -7 -31 -91 -130 -93 -110 -1 5 -3 15 -4 20 -1 6 -3 15 -4 21 0 5 -5 8 -10
5 -5 -3 -9 32 -10 78 -2 105 22 174 82 232 l42 41 33 -35 c17 -20 32 -40 32
-46z m-475 -76 c3 -5 -3 -10 -14 -10 -12 0 -21 5 -21 10 0 6 6 10 14 10 8 0
18 -4 21 -10z m-658 -736 c-3 -3 -12 -4 -19 -1 -8 3 -5 6 6 6 11 1 17 -2 13
-5z m968 -39 c17 -19 43 -37 60 -41 16 -3 39 -14 50 -23 30 -26 78 -55 71 -42
-4 6 -1 11 7 11 20 0 28 -12 17 -25 -7 -8 -4 -20 8 -36 25 -32 33 -57 22 -64
-6 -4 -10 -15 -10 -26 0 -30 -30 -69 -53 -69 -11 0 -41 12 -66 28 -25 15 -63
36 -84 47 -33 17 -38 24 -33 47 4 18 0 28 -11 32 -9 4 -13 9 -10 12 3 4 33 -7
66 -24 48 -24 62 -27 71 -17 8 10 2 22 -23 49 -19 20 -30 36 -26 36 5 0 9 7 9
15 0 22 -49 65 -74 65 -15 0 -25 10 -33 30 -16 42 5 40 42 -5z m-60 -115 c3
-5 1 -10 -4 -10 -6 0 -11 5 -11 10 0 6 2 10 4 10 3 0 8 -4 11 -10z m75 -206
c0 -2 -9 0 -20 6 -11 6 -20 13 -20 16 0 2 9 0 20 -6 11 -6 20 -13 20 -16z m40
-44 c0 -5 -5 -10 -11 -10 -5 0 -7 5 -4 10 3 6 8 10 11 10 2 0 4 -4 4 -10z m78
-54 c-2 -25 -7 -31 -27 -31 -19 0 -27 7 -33 30 -12 46 -5 56 32 43 27 -9 31
-14 28 -42z m156 -33 c8 -19 -8 -38 -23 -29 -6 4 -16 16 -21 27 -9 16 -7 19
14 19 13 0 27 -7 30 -17z m66 -68 c13 -14 21 -25 18 -25 -2 0 -15 11 -28 25
-13 14 -21 25 -18 25 2 0 15 -11 28 -25z m-820 -180 c-17 -21 -27 -19 -33 6
-4 15 -2 19 9 15 8 -3 14 0 14 6 0 9 3 9 12 0 8 -8 8 -15 -2 -27z m920 -21 c0
-8 -4 -12 -10 -9 -5 3 -10 10 -10 16 0 5 5 9 10 9 6 0 10 -7 10 -16z m-1023
-36 c-3 -8 -6 -5 -6 6 -1 11 2 17 5 13 3 -3 4 -12 1 -19z m1 -42 c-1 -15 -7
-22 -15 -19 -15 6 -15 6 -7 27 9 24 24 19 22 -8z m328 -84 c-22 -5 -30 3 -21
18 5 8 11 7 22 -2 15 -12 14 -13 -1 -16z"/>
<path d="M3820 2610 c-8 -6 -11 -10 -7 -10 5 0 -10 -21 -32 -47 -23 -25 -39
-48 -37 -51 10 -9 85 61 91 85 7 30 4 35 -15 23z"/>
<path d="M3686 1275 c4 -8 10 -15 15 -15 4 0 6 7 3 15 -4 8 -10 15 -15 15 -4
0 -6 -7 -3 -15z"/>
<path d="M1919 4263 l-24 -28 28 24 c25 23 32 31 24 31 -2 0 -14 -12 -28 -27z"/>
<path d="M3701 4190 c0 -8 4 -24 9 -35 l9 -20 0 20 c0 11 -4 27 -9 35 -9 13
-10 13 -9 0z"/>
<path d="M3820 3701 c0 -5 5 -13 10 -16 6 -3 10 -2 10 4 0 5 -4 13 -10 16 -5
3 -10 2 -10 -4z"/>
<path d="M1592 3600 c0 -14 2 -19 5 -12 2 6 2 18 0 25 -3 6 -5 1 -5 -13z"/>
<path d="M2754 3586 c-3 -9 -10 -13 -15 -10 -5 3 -10 -2 -10 -10 -5 -57 -20
-48 161 -91 41 -10 82 -22 91 -26 11 -6 21 -3 31 9 28 32 27 49 0 74 -33 30
-70 44 -137 53 -27 3 -65 9 -82 12 -24 4 -34 1 -39 -11z m266 -77 c0 -6 -4 -7
-10 -4 -5 3 -10 11 -10 16 0 6 5 7 10 4 6 -3 10 -11 10 -16z"/>
<path d="M1552 3450 c-11 -18 -10 -20 8 -20 13 0 20 7 20 20 0 11 -3 20 -8 20
-4 0 -13 -9 -20 -20z"/>
<path d="M2506 3409 c-22 -5 -65 -21 -97 -35 -50 -23 -57 -29 -49 -44 8 -15
22 -18 77 -18 38 0 93 -6 124 -15 67 -18 103 -13 124 19 16 24 42 35 29 12 -5
-10 -4 -10 6 -1 11 10 20 6 48 -19 38 -32 30 -32 154 -12 43 7 63 26 53 51 -5
12 -9 14 -12 6 -3 -7 -16 -13 -30 -13 -17 0 -23 4 -20 13 3 8 0 14 -6 14 -7 1
-42 13 -80 27 -59 23 -82 26 -175 25 -59 -1 -125 -5 -146 -10z"/>
<path d="M1483 3290 c0 -25 2 -35 4 -22 2 12 2 32 0 45 -2 12 -4 2 -4 -23z"/>
<path d="M2865 2889 c-16 -10 -34 -24 -40 -31 -5 -7 -36 -33 -68 -57 -32 -24
-65 -56 -74 -71 -8 -15 -34 -39 -56 -54 -23 -14 -38 -26 -33 -26 4 0 -16 -23
-43 -51 -28 -29 -51 -54 -51 -56 0 -7 -28 -33 -35 -33 -3 0 -3 5 0 10 3 6 1
10 -5 10 -7 0 -10 -7 -6 -15 6 -17 -13 -65 -26 -65 -4 0 -8 -11 -8 -24 0 -16
7 -26 22 -29 22 -6 41 6 119 72 28 24 37 28 33 15 -9 -25 16 7 84 106 28 41
101 124 162 185 60 60 110 115 110 122 0 19 -50 15 -85 -8z"/>
<path d="M2986 2758 c-9 -5 -16 -14 -16 -19 0 -6 4 -7 10 -4 6 3 7 -1 4 -9 -4
-11 0 -16 15 -16 12 0 21 4 21 9 0 5 29 1 66 -9 l65 -18 -18 22 c-10 11 -19
22 -19 24 -6 11 -114 28 -128 20z"/>
<path d="M3235 2690 c-3 -5 -2 -10 4 -10 5 0 13 5 16 10 3 6 2 10 -4 10 -5 0
-13 -4 -16 -10z"/>
<path d="M2585 2680 c-3 -6 1 -7 9 -4 18 7 21 14 7 14 -6 0 -13 -4 -16 -10z"/>
<path d="M2546 2634 c-5 -14 -4 -15 9 -4 17 14 19 20 6 20 -5 0 -12 -7 -15
-16z"/>
<path d="M1558 2094 c-4 -3 -38 -6 -77 -7 -57 -2 -74 -6 -92 -23 -22 -22 -18
-54 4 -36 19 15 74 24 81 13 3 -5 12 -8 19 -7 26 5 107 47 107 56 0 11 -33 14
-42 4z"/>
<path d="M3100 2061 c0 -7 9 -21 20 -33 11 -12 20 -18 20 -14 0 4 -9 19 -20
33 -11 14 -20 20 -20 14z"/>
<path d="M1360 2003 c1 -18 18 -35 24 -24 4 6 4 16 1 21 -7 12 -25 13 -25 3z"/>
<path d="M3080 1970 c8 -5 22 -9 30 -9 10 0 8 3 -5 9 -27 12 -43 12 -25 0z"/>
<path d="M1511 1793 c7 -12 15 -20 18 -17 3 2 -3 12 -13 22 -17 16 -18 16 -5
-5z"/>
<path d="M2040 1089 c-12 -9 -11 -10 5 -5 20 6 20 6 1 -9 -16 -12 -17 -18 -8
-27 9 -9 16 -8 29 5 15 15 15 19 3 32 -11 10 -19 11 -30 4z"/>
<path d="M1958 1031 c-56 -51 -106 -140 -92 -163 4 -6 3 -8 -3 -5 -13 8 -14 4
-58 -125 -31 -93 -38 -130 -13 -70 l12 27 4 -25 c2 -13 11 -29 19 -35 19 -14
9 -51 -18 -65 -17 -10 -19 -7 -19 25 0 51 -23 45 -48 -12 -17 -43 -41 -117
-26 -85 3 6 12 12 20 12 8 0 14 5 14 11 0 7 7 8 18 4 40 -17 72 -14 91 6 14
15 31 21 61 21 23 -1 45 -3 48 -6 8 -9 52 35 46 46 -3 5 0 15 6 23 16 19 -2
20 -30 3 -26 -17 -54 10 -76 71 -9 25 -22 58 -30 73 -13 25 -12 32 11 79 14
29 25 60 25 69 0 9 6 24 13 33 11 17 15 17 45 2 17 -9 32 -23 32 -31 0 -8 6
-14 14 -14 25 0 29 81 6 135 -5 11 -10 26 -12 34 -3 9 -23 -4 -60 -38z m-78
-441 c0 -5 -4 -10 -10 -10 -5 0 -10 5 -10 10 0 6 5 10 10 10 6 0 10 -4 10 -10z"/>
<path d="M1918 862 c-7 -25 -1 -32 24 -32 10 0 18 -5 18 -11 0 -22 84 -119
103 -119 5 0 7 7 3 15 -7 20 0 19 34 -5 16 -11 32 -30 35 -41 4 -11 9 -19 11
-16 3 2 -8 28 -22 56 -19 36 -30 48 -35 39 -7 -10 -13 -10 -26 -2 -21 14 -20
55 2 67 20 11 19 20 -4 45 -23 27 -31 28 -31 3 0 -15 -6 -18 -41 -15 -24 2
-47 11 -54 20 -11 15 -12 15 -17 -4z"/>
<path d="M3513 798 c-16 -8 -23 -20 -23 -40 0 -32 23 -39 35 -10 9 18 17 62
13 61 -2 0 -13 -5 -25 -11z"/>
<path d="M2074 629 c-10 -17 13 -36 27 -22 12 12 4 33 -11 33 -5 0 -12 -5 -16
-11z"/>
<path d="M2360 612 c0 -14 11 -21 26 -15 21 8 17 23 -6 23 -11 0 -20 -4 -20
-8z"/>
<path d="M3498 589 c-24 -13 -23 -20 7 -55 14 -16 28 -47 32 -69 l7 -40 7 30
c4 17 7 22 8 13 0 -10 5 -18 10 -18 6 0 7 16 4 36 -5 33 -4 35 13 27 20 -11
44 -7 44 6 0 7 -102 81 -111 81 -2 0 -12 -5 -21 -11z"/>
<path d="M3195 549 c-4 -6 -5 -12 -2 -15 2 -3 7 2 10 11 7 17 1 20 -8 4z"/>
<path d="M2710 519 c0 -14 31 -63 50 -79 4 -3 44 -76 90 -164 80 -151 87 -160
139 -194 31 -20 67 -46 81 -59 20 -19 36 -23 83 -23 l58 0 -20 25 c-11 14 -22
39 -26 55 -8 38 -83 120 -109 120 -25 1 -46 16 -68 52 -12 18 -14 28 -6 30 7
3 8 9 3 18 -5 8 -10 23 -11 34 0 11 -6 22 -12 24 -7 2 -12 9 -12 16 0 22 -34
46 -58 39 -15 -3 -22 -1 -22 8 0 11 -2 11 -10 -1 -9 -13 -11 -13 -20 0 -12 19
-13 33 -1 25 5 -3 12 -1 15 4 4 5 -5 8 -19 6 -22 -2 -30 5 -26 28 1 8 -13 10
-42 7 -10 -1 -26 9 -37 22 -15 18 -19 19 -20 7z"/>
<path d="M2372 506 l-23 -12 27 -24 c15 -14 24 -18 20 -10 -4 8 0 6 8 -4 12
-15 16 -16 17 -5 4 50 -16 73 -49 55z"/>
<path d="M2850 480 c0 -13 11 -13 30 0 12 8 11 10 -7 10 -13 0 -23 -4 -23 -10z"/>
<path d="M4300 470 c0 -5 16 -34 35 -64 19 -30 35 -62 35 -71 0 -9 6 -18 14
-21 7 -3 37 -52 66 -110 29 -57 54 -103 56 -101 2 2 -12 41 -32 88 -19 46 -38
91 -42 99 -24 61 -132 207 -132 180z"/>
<path d="M4196 383 c-6 -14 -5 -15 5 -6 7 7 10 15 7 18 -3 3 -9 -2 -12 -12z"/>
<path d="M4132 318 c-14 -14 2 -38 27 -38 9 0 22 -5 29 -12 16 -16 52 16 45
42 -4 15 -10 17 -34 10 -17 -5 -31 -5 -34 1 -8 12 -19 11 -33 -3z"/>
<path d="M3143 306 c12 -17 8 -26 -10 -20 -11 4 -14 3 -7 -3 16 -12 23 -38 14
-53 -13 -20 10 -49 34 -43 12 2 35 4 53 4 l32 0 -36 33 c-19 19 -39 38 -44 42
-5 5 -17 18 -27 29 -9 11 -14 16 -9 11z"/>
<path d="M3455 210 c-3 -6 1 -7 9 -4 18 7 21 14 7 14 -6 0 -13 -4 -16 -10z"/>
<path d="M3470 91 c0 -6 4 -13 10 -16 6 -3 7 1 4 9 -7 18 -14 21 -14 7z"/>
<path d="M4514 70 c3 -14 6 -35 6 -47 0 -13 5 -23 11 -23 12 0 3 55 -13 80 -7
11 -8 8 -4 -10z"/>
<path d="M3288 30 l-17 -30 59 0 c33 0 60 2 60 4 0 4 -74 56 -81 56 -2 0 -12
-14 -21 -30z"/>
<path d="M3218 28 c9 -9 15 -9 24 0 9 9 7 12 -12 12 -19 0 -21 -3 -12 -12z"/>
</g>
</svg>
